<?xml version="1.0" encoding="utf-8"?>
<!-- Generator: Adobe Illustrator 15.0.2, SVG Export Plug-In . SVG Version: 6.00 Build 0)  -->
<!DOCTYPE svg PUBLIC "-//W3C//DTD SVG 1.1//EN" "http://www.w3.org/Graphics/SVG/1.1/DTD/svg11.dtd">
<svg version="1.1" id="Capa_1" xmlns="http://www.w3.org/2000/svg" xmlns:xlink="http://www.w3.org/1999/xlink" x="0px" y="0px"
	 width="31.637px" height="31.637px" viewBox="0 0 31.637 31.637" enable-background="new 0 0 31.637 31.637" xml:space="preserve">
<g>
	<g>
		<circle cx="23.961" cy="7.067" r="0.827"/>
		<path d="M0.01,15.845c-0.239,5.688,4.03,11.85,9.965,12.192c3.997,0.228,6.318-2.739,6.222-5.27
			c-0.099-2.528-3.421-4.02-5.792-3.218c-2.118,0.718-2.361,2.81-1.243,3.978c0.279,0.291,0.608,0.453,0.942,0.536
			c0.095,0.599,0.604,1.054,1.225,1.054c0.686,0,1.241-0.556,1.241-1.241c0-0.687-0.556-1.242-1.241-1.242
			c-0.348,0-0.658,0.142-0.885,0.371c-0.096-0.094-0.185-0.195-0.262-0.304c-0.583-0.825-0.339-2.043,0.975-2.235
			c1.313-0.197,3.211,0.629,3.634,2.148c0.428,1.535-0.724,4.293-4.168,4.026c-6.325-0.488-8.173-10.226-5.645-11.535
			c0.684-0.353,1.676-0.41,2.87-0.354c0.09,0.004-1.632,1.848-1.945,3.276c-0.216,0.98,0.861,1.755,1.118,1.654
			c0.467-0.18,0.486-1.752,1.119-2.336c0.632-0.582,2.326-0.268,2.529-0.732c0.099-0.229-1.829-0.58-1.729-0.812
			c0.221-0.508,0.429-0.944,0.553-0.933c0.976,0.085,2.028,0.187,3.121,0.235c0.523,0.025,1.062,0.024,1.604,0.007
			c0.081-0.002,0.535,0.988,1.056,2.071c0.173,0.363-0.605,1.268-0.421,1.724c0.369,0.913,1.688,1.313,1.851,0.926
			c0.242-0.585-0.284-1.823-0.099-2.096c0.188-0.269,2.826,0.05,2.727-0.341c-0.056-0.207-2.846-0.791-2.918-1.025
			c-0.209-0.68-0.42-1.358-0.205-1.375c1.167-0.098,2.249-0.221,3.074-0.271c3.778,2.613,8.982,1.503,10.86-1.769
			c-1.978-1.021-3.818-0.762-5.327-0.535c-0.965,0.144-1.798,0.267-2.521,0.062c-0.197-0.057-0.313-0.264-0.257-0.461
			c0.056-0.196,0.263-0.313,0.46-0.258c0.568,0.16,1.33,0.049,2.208-0.082c1.685-0.252,3.759-0.561,6.044,0.74
			c0.441-0.132,0.903-0.339,0.888-1.105c-0.021-1.145-1.751-4.184-1.751-4.184s0-3.26-3.162-2.869
			c-2.967-1.947-5.398,0.826-5.497,1.75c-4.231-2.529-7.431-2.783-11.431-1.771C2.79,6.015,0.216,11.026,0.01,15.845z M22.308,7.305
			c0-1.33,1.078-2.408,2.407-2.408c1.33,0,2.408,1.078,2.408,2.408s-1.078,2.408-2.408,2.408S22.307,8.635,22.308,7.305z"/>
	</g>
</g>
</svg>
